<svg xmlns="http://www.w3.org/2000/svg" width="512" height="512" viewBox="0 0 512 512">
  <metadata><?xpacket begin="﻿" id="W5M0MpCehiHzreSzNTczkc9d"?>
<x:xmpmeta xmlns:x="adobe:ns:meta/" x:xmptk="Adobe XMP Core 5.6-c140 79.160451, 2017/05/06-01:08:21        ">
   <rdf:RDF xmlns:rdf="http://www.w3.org/1999/02/22-rdf-syntax-ns#">
      <rdf:Description rdf:about=""/>
   </rdf:RDF>
</x:xmpmeta>
                                                                                                    
                                                                                                    
                                                                                                    
                                                                                                    
                                                                                                    
                                                                                                    
                                                                                                    
                                                                                                    
                                                                                                    
                                                                                                    
                                                                                                    
                                                                                                    
                                                                                                    
                                                                                                    
                                                                                                    
                                                                                                    
                                                                                                    
                                                                                                    
                                                                                                    
                                                                                                    
                           
<?xpacket end="w"?></metadata>
<defs>
    <style>
      .cls-1 {
        fill: #28af0a;
      }

      .cls-2 {
        fill-opacity: 0.1;
      }

      .cls-2, .cls-3, .cls-5 {
        fill-rule: evenodd;
      }

      .cls-3 {
        fill: #007800;
      }

      .cls-4 {
        fill: #fff;
      }

      .cls-5 {
        fill: #ffde00;
      }
    </style>
  </defs>
  <rect id="Abgerundetes_Rechteck_1" data-name="Abgerundetes Rechteck 1" class="cls-1" width="512" height="512"/>
  <path id="Shadow_1" data-name="Shadow 1" class="cls-2" d="M218.992,423.992L352.719,70.265l341.4,341.4L450.389,655.389Z"/>
  <path class="cls-3" d="M256,34A150,150,0,0,1,406,184c0,82.843-77.746,229.311-150,272-72.156-42.689-150-189.157-150-272A150,150,0,0,1,256,34Z"/>
  <ellipse id="Tacho" class="cls-4" cx="256" cy="183.5" rx="119.25" ry="119.25"/>
  <path id="Shadow_4" data-name="Shadow 4" class="cls-2" d="M194.849,269.621L354.47,152,655.911,453.441,517.29,592.061Z"/>
  <path id="Shadow_3" data-name="Shadow 3" class="cls-2" d="M228.877,129.373L257,81.25l66.578,66.578-38.123,38.123Z"/>
  <path id="Stern" class="cls-5" d="M159.451,153.449c30.118-12.521,62.814-15.155,62.814-15.155s12.7-30.356,33.824-55.057c21.126,24.841,33.823,55.057,33.823,55.057s32.643,2.719,62.815,15.155c-17.132,27.8-41.911,49.181-41.911,49.181s7.6,31.983,5,64.423c-31.636-7.523-59.725-24.661-59.725-24.661s-28.174,17.29-59.726,24.661c-2.757-32.262,5-64.423,5-64.423S176.557,181.314,159.451,153.449Z"/>
</svg>
