<svg id="Radar" xmlns="http://www.w3.org/2000/svg" width="512" height="512" viewBox="0 0 512 512">
  <metadata><?xpacket begin="﻿" id="W5M0MpCehiHzreSzNTczkc9d"?>
<x:xmpmeta xmlns:x="adobe:ns:meta/" x:xmptk="Adobe XMP Core 5.6-c140 79.160451, 2017/05/06-01:08:21        ">
   <rdf:RDF xmlns:rdf="http://www.w3.org/1999/02/22-rdf-syntax-ns#">
      <rdf:Description rdf:about=""/>
   </rdf:RDF>
</x:xmpmeta>
                                                                                                    
                                                                                                    
                                                                                                    
                                                                                                    
                                                                                                    
                                                                                                    
                                                                                                    
                                                                                                    
                                                                                                    
                                                                                                    
                                                                                                    
                                                                                                    
                                                                                                    
                                                                                                    
                                                                                                    
                                                                                                    
                                                                                                    
                                                                                                    
                                                                                                    
                                                                                                    
                           
<?xpacket end="w"?></metadata>
<defs>
    <style>
      .cls-1 {
        fill: #007800;
      }

      .cls-2 {
        fill: #fff;
        fill-rule: evenodd;
      }
    </style>
  </defs>
  <rect id="Abgerundetes_Rechteck_1" data-name="Abgerundetes Rechteck 1" class="cls-1" width="512" height="512"/>
  <path class="cls-2" d="M256,36c121.5,0,220,98.5,220,220S377.5,476,256,476,36,377.5,36,256,134.5,36,256,36Zm0,36.644A183.356,183.356,0,1,1,72.644,256,183.356,183.356,0,0,1,256,72.644Z"/>
  <path id="Abgerundetes_Rechteck_1-2" data-name="Abgerundetes Rechteck 1" class="cls-2" d="M256,402.667a145.971,145.971,0,0,1-78.147-22.541,24.373,24.373,0,0,1-35.364-31.249,146.622,146.622,0,0,1,1.1-187.056l-0.01-.01a8.593,8.593,0,0,1,0-12.153l6.077-6.077a8.593,8.593,0,0,1,12.153,0l88.594,88.594a24.586,24.586,0,1,1-18.23,18.23l-36.328-36.328a73.33,73.33,0,1,0,130.744,22.069l17.648-4.963a91.665,91.665,0,1,1-161.528-30.241L156.6,174.835a128.278,128.278,0,0,0-.274,161.982,24.295,24.295,0,0,1,32.208,23.1,24.607,24.607,0,0,1-.5,4.935A128.314,128.314,0,0,0,379.534,221.256l17.686-4.974A146.771,146.771,0,0,1,256,402.667Z"/>
</svg>
