<svg id="Gruppe_1" data-name="Gruppe 1" xmlns="http://www.w3.org/2000/svg" width="512" height="512" viewBox="0 0 512 512">
  <metadata><?xpacket begin="﻿" id="W5M0MpCehiHzreSzNTczkc9d"?>
<x:xmpmeta xmlns:x="adobe:ns:meta/" x:xmptk="Adobe XMP Core 5.6-c140 79.160451, 2017/05/06-01:08:21        ">
   <rdf:RDF xmlns:rdf="http://www.w3.org/1999/02/22-rdf-syntax-ns#">
      <rdf:Description rdf:about=""/>
   </rdf:RDF>
</x:xmpmeta>
                                                                                                    
                                                                                                    
                                                                                                    
                                                                                                    
                                                                                                    
                                                                                                    
                                                                                                    
                                                                                                    
                                                                                                    
                                                                                                    
                                                                                                    
                                                                                                    
                                                                                                    
                                                                                                    
                                                                                                    
                                                                                                    
                                                                                                    
                                                                                                    
                                                                                                    
                                                                                                    
                           
<?xpacket end="w"?></metadata>
<defs>
    <style>
      .cls-1 {
        fill: #007800;
      }

      .cls-2 {
        fill: #fff;
        fill-rule: evenodd;
      }
    </style>
  </defs>
  <rect id="Abgerundetes_Rechteck_1" data-name="Abgerundetes Rechteck 1" class="cls-1" width="512" height="512"/>
  <path id="Abgerundetes_Rechteck_3" data-name="Abgerundetes Rechteck 3" class="cls-2" d="M336,320H240a8,8,0,0,1,0-16h96A8,8,0,0,1,336,320Zm0-48H240a8,8,0,0,1,0-16h96A8,8,0,0,1,336,272Zm0-48H240a8,8,0,0,1,0-16h96A8,8,0,0,1,336,224Zm0-48H112a8,8,0,0,1-8-8V136a8,8,0,0,1,8-8H336a8,8,0,0,1,8,8v32A8,8,0,0,1,336,176ZM112,208h96a8,8,0,0,1,8,8v48a8,8,0,0,1-8,8H112a8,8,0,0,1-8-8V216A8,8,0,0,1,112,208Zm0,96h96a8,8,0,0,1,0,16H112A8,8,0,0,1,112,304Zm0,48h96a8,8,0,0,1,0,16H112A8,8,0,0,1,112,352Zm128,0h96a8,8,0,0,1,0,16H240A8,8,0,0,1,240,352Z"/>
  <path id="Abgerundetes_Rechteck_1-2" data-name="Abgerundetes Rechteck 1" class="cls-2" d="M430,416H370a10,10,0,0,1-10-10V144h80V406A10,10,0,0,1,430,416Zm-6-256H376V394a6,6,0,0,0,6,6h36a6,6,0,0,0,6-6V160Z"/>
  <path id="Abgerundetes_Rechteck_2" data-name="Abgerundetes Rechteck 2" class="cls-2" d="M112,416a40,40,0,0,1-40-40V96H376v72.318l-16,.212V112H88V376a24,24,0,0,0,24,24H400v16H112Z"/>
</svg>
