<svg id="Chat" xmlns="http://www.w3.org/2000/svg" width="512" height="512" viewBox="0 0 512 512">
  <metadata><?xpacket begin="﻿" id="W5M0MpCehiHzreSzNTczkc9d"?>
<x:xmpmeta xmlns:x="adobe:ns:meta/" x:xmptk="Adobe XMP Core 5.6-c140 79.160451, 2017/05/06-01:08:21        ">
   <rdf:RDF xmlns:rdf="http://www.w3.org/1999/02/22-rdf-syntax-ns#">
      <rdf:Description rdf:about=""/>
   </rdf:RDF>
</x:xmpmeta>
                                                                                                    
                                                                                                    
                                                                                                    
                                                                                                    
                                                                                                    
                                                                                                    
                                                                                                    
                                                                                                    
                                                                                                    
                                                                                                    
                                                                                                    
                                                                                                    
                                                                                                    
                                                                                                    
                                                                                                    
                                                                                                    
                                                                                                    
                                                                                                    
                                                                                                    
                                                                                                    
                           
<?xpacket end="w"?></metadata>
<defs>
    <style>
      .cls-1 {
        fill: #007800;
      }

      .cls-2 {
        fill: none;
        stroke: #fff;
        stroke-linejoin: round;
        stroke-width: 16px;
      }

      .cls-2, .cls-3 {
        fill-rule: evenodd;
      }

      .cls-3 {
        fill: #fff;
      }
    </style>
  </defs>
  <rect id="Abgerundetes_Rechteck_1" data-name="Abgerundetes Rechteck 1" class="cls-1" width="512" height="512"/>
  <path class="cls-2" d="M323.2,96.958c68.925,0,124.8,45.745,124.8,102.173,0,35.332-17.9,64.668-51.2,83.016-0.619,24.6,38.4,51.087,38.4,51.087s-75.476,9.545-89.6-31.929c-8.616,1.54-13.219,0-22.4,0-68.925,0-124.8-45.745-124.8-102.174S254.275,96.958,323.2,96.958Z"/>
  <path class="cls-3" d="M188.8,173.588c68.925,0,124.8,45.745,124.8,102.173S257.725,377.934,188.8,377.934a153.2,153.2,0,0,1-17.046-.945q-3.471-.387-6.879-0.93c-35.938,49.022-81.675,33.8-81.675,33.8s41.515-25.18,32.3-51.4c-31.211-18.572-51.5-48.7-51.5-82.7C64,219.333,119.875,173.588,188.8,173.588Z"/>
</svg>
