<svg id="Members" xmlns="http://www.w3.org/2000/svg" width="512" height="512" viewBox="0 0 512 512">
  <metadata><?xpacket begin="﻿" id="W5M0MpCehiHzreSzNTczkc9d"?>
<x:xmpmeta xmlns:x="adobe:ns:meta/" x:xmptk="Adobe XMP Core 5.6-c140 79.160451, 2017/05/06-01:08:21        ">
   <rdf:RDF xmlns:rdf="http://www.w3.org/1999/02/22-rdf-syntax-ns#">
      <rdf:Description rdf:about=""/>
   </rdf:RDF>
</x:xmpmeta>
                                                                                                    
                                                                                                    
                                                                                                    
                                                                                                    
                                                                                                    
                                                                                                    
                                                                                                    
                                                                                                    
                                                                                                    
                                                                                                    
                                                                                                    
                                                                                                    
                                                                                                    
                                                                                                    
                                                                                                    
                                                                                                    
                                                                                                    
                                                                                                    
                                                                                                    
                                                                                                    
                           
<?xpacket end="w"?></metadata>
<defs>
    <style>
      .cls-1 {
        fill: #007800;
      }

      .cls-2 {
        fill: #fff;
        fill-rule: evenodd;
      }
    </style>
  </defs>
  <rect id="Abgerundetes_Rechteck_1" data-name="Abgerundetes Rechteck 1" class="cls-1" width="512" height="512"/>
  <path id="Left" class="cls-2" d="M424,389V357.5c0-25.169-15.17-48.195-40.279-65.932a87.629,87.629,0,0,0,19.393-14.841C448,290.113,480,317.859,480,349.3V389H424ZM371.475,283.783a195.091,195.091,0,0,0-39.908-16.954,110.673,110.673,0,0,0-2.615-136.92,69.235,69.235,0,0,1,14.548-1.55c41.137,0,74.484,36.115,74.484,80.664C417.984,242.854,398.745,271.8,371.475,283.783Z"/>
  <path id="Right" class="cls-2" d="M88,357.5V389H32V349.3c0-31.442,32-59.188,76.886-72.574a87.629,87.629,0,0,0,19.393,14.841C103.17,309.305,88,332.331,88,357.5Zm92.433-90.671a195.091,195.091,0,0,0-39.908,16.954c-27.27-11.98-46.509-40.929-46.509-74.76,0-44.549,33.347-80.664,74.484-80.664a69.235,69.235,0,0,1,14.548,1.55A110.673,110.673,0,0,0,180.433,266.829Z"/>
  <path id="Center" class="cls-2" d="M102,403V358.211c0-35.473,36.1-66.776,86.746-81.878C206.3,294.092,229.953,305,256,305s49.7-10.908,67.254-28.667C373.9,291.435,410,322.738,410,358.211V403H102ZM256,109c46.392,0,84,40.742,84,91s-37.608,91-84,91-84-40.742-84-91S209.608,109,256,109Z"/>
</svg>
